<?xml version="1.0"?>
<svg xmlns="http://www.w3.org/2000/svg" xmlns:xlink="http://www.w3.org/1999/xlink" version="1.1" xml:space="preserve">
  <defs>

    <symbol id="loader" width="100%" height="100%" viewBox="22 22 44 44">
      <circle cx="44" cy="44" r="20.2" fill="none" stroke="currentColor" stroke-width="4"></circle>
    </symbol>

    <symbol id="burger" width="100%" height="100%" viewBox="0 0 48 48">
      <path d="M41,14H7a2,2,0,0,1,0-4H41A2,2,0,0,1,41,14Z" fill="currentColor"/>
      <path d="M41,26H7a2,2,0,0,1,0-4H41A2,2,0,0,1,41,26Z" fill="currentColor"/>
      <path d="M41,38H7a2,2,0,0,1,0-4H41A2,2,0,0,1,41,38Z" fill="currentColor"/>
    </symbol>

    <symbol id="close" width="100%" height="100%" viewBox="0 0 16 16">
      <path d="M1 15L15 1M1 1L15 15" stroke="currentColor" stroke-width="2" stroke-linecap="round" stroke-linejoin="round"/>
    </symbol>

    <symbol id="arrow" width="100%" height="100%" viewBox="0 0 10 7">
      <path d="M4.80794 6.60791L1.09346 2.15053C0.659239 1.62947 1.02976 0.838379 1.70803 0.838379L8.29197 0.838379C8.97024 0.838379 9.34076 1.62946 8.90654 2.15053L5.19206 6.60791C5.09211 6.72785 4.90789 6.72785 4.80794 6.60791Z" fill="currentColor"/>
    </symbol>

    <symbol id="arrow-left" width="100%" height="100%" viewBox="0 0 11 18">
      <path d="M3.76777 9L9.88388 2.88388C10.372 2.39573 10.372 1.60427 9.88388 1.11612C9.39573 0.627961 8.60427 0.627961 8.11612 1.11612L1.11612 8.11612C0.62796 8.60427 0.62796 9.39573 1.11612 9.88388L8.11612 16.8839C8.60427 17.372 9.39573 17.372 9.88388 16.8839C10.372 16.3957 10.372 15.6043 9.88388 15.1161L3.76777 9Z" fill="currentColor"/>
    </symbol>

    <symbol id="arrow-right" width="100%" height="100%" viewBox="0 0 11 18">
      <path d="M7.23223 9L1.11612 2.88388C0.627961 2.39573 0.627961 1.60427 1.11612 1.11612C1.60427 0.627961 2.39573 0.627961 2.88388 1.11612L9.88388 8.11612C10.372 8.60427 10.372 9.39573 9.88388 9.88388L2.88388 16.8839C2.39573 17.372 1.60427 17.372 1.11612 16.8839C0.627961 16.3957 0.627961 15.6043 1.11612 15.1161L7.23223 9Z" fill="currentColor"/>
    </symbol>

    <symbol id="arrow-up" width="100%" height="100%" viewBox="0 0 20 20">
      <path d="M14.1667 5.83325L5.83337 14.1666" fill="var(--color-none)" stroke="currentColor" stroke-width="2" stroke-linecap="round" stroke-linejoin="round"/>
      <path d="M6.66663 5.83325H14.1666V13.3333" fill="var(--color-none)" stroke="currentColor" stroke-width="2" stroke-linecap="round" stroke-linejoin="round"/>
    </symbol>

    <symbol id="tel" width="100%" height="100%" viewBox="0 0 24 23">
      <path d="M5 4.06006H9L11 8.69916L8.5 10.0909C9.57096 12.1057 11.3285 13.7363 13.5 14.73L15 12.4104L20 14.2661V17.9774C20 18.4695 19.7893 18.9415 19.4142 19.2895C19.0391 19.6375 18.5304 19.833 18 19.833C14.0993 19.6131 10.4202 18.0762 7.65683 15.5123C4.8935 12.9484 3.23705 9.53488 3 5.9157C3 5.42355 3.21071 4.95156 3.58579 4.60356C3.96086 4.25556 4.46957 4.06006 5 4.06006" stroke="currentColor" fill="var(--color-none)" stroke-width="2" stroke-linecap="round" stroke-linejoin="round"/>
      <path d="M15 6.84351C15.5304 6.84351 16.0391 7.03901 16.4142 7.38701C16.7893 7.73501 17 8.207 17 8.69914" fill="var(--color-none)" stroke="currentColor" stroke-width="2" stroke-linecap="round" stroke-linejoin="round"/>
      <path d="M15 3.13232C16.5913 3.13232 18.1174 3.71884 19.2426 4.76284C20.3679 5.80684 21 7.2228 21 8.69924" fill="var(--color-none)" stroke="currentColor" stroke-width="2" stroke-linecap="round" stroke-linejoin="round"/>
    </symbol>

  </defs>
</svg>