<?xml version="1.0"?>
<svg xmlns="http://www.w3.org/2000/svg" xmlns:xlink="http://www.w3.org/1999/xlink" version="1.1" xml:space="preserve">
  <defs>

    <symbol id="loader" width="100%" height="100%" viewBox="22 22 44 44">
      <circle cx="44" cy="44" r="20.2" fill="none" stroke="currentColor" stroke-width="4"></circle>
    </symbol>

    <symbol id="burger" width="100%" height="100%" viewBox="0 0 48 48">
      <path d="M41,14H7a2,2,0,0,1,0-4H41A2,2,0,0,1,41,14Z" fill="currentColor"/>
      <path d="M41,26H7a2,2,0,0,1,0-4H41A2,2,0,0,1,41,26Z" fill="currentColor"/>
      <path d="M41,38H7a2,2,0,0,1,0-4H41A2,2,0,0,1,41,38Z" fill="currentColor"/>
    </symbol>

    <symbol id="close" width="100%" height="100%" viewBox="0 0 16 16">
      <path d="M1 15L15 1M1 1L15 15" stroke="currentColor" stroke-width="2" stroke-linecap="round" stroke-linejoin="round"/>
    </symbol>

    <symbol id="arrow" width="100%" height="100%" viewBox="0 0 10 7">
      <path d="M4.80794 6.60791L1.09346 2.15053C0.659239 1.62947 1.02976 0.838379 1.70803 0.838379L8.29197 0.838379C8.97024 0.838379 9.34076 1.62946 8.90654 2.15053L5.19206 6.60791C5.09211 6.72785 4.90789 6.72785 4.80794 6.60791Z" fill="currentColor"/>
    </symbol>

    <symbol id="arrow-left" width="100%" height="100%" viewBox="0 0 11 18">
      <path d="M3.76777 9L9.88388 2.88388C10.372 2.39573 10.372 1.60427 9.88388 1.11612C9.39573 0.627961 8.60427 0.627961 8.11612 1.11612L1.11612 8.11612C0.62796 8.60427 0.62796 9.39573 1.11612 9.88388L8.11612 16.8839C8.60427 17.372 9.39573 17.372 9.88388 16.8839C10.372 16.3957 10.372 15.6043 9.88388 15.1161L3.76777 9Z" fill="currentColor"/>
    </symbol>

    <symbol id="arrow-right" width="100%" height="100%" viewBox="0 0 11 18">
      <path d="M7.23223 9L1.11612 2.88388C0.627961 2.39573 0.627961 1.60427 1.11612 1.11612C1.60427 0.627961 2.39573 0.627961 2.88388 1.11612L9.88388 8.11612C10.372 8.60427 10.372 9.39573 9.88388 9.88388L2.88388 16.8839C2.39573 17.372 1.60427 17.372 1.11612 16.8839C0.627961 16.3957 0.627961 15.6043 1.11612 15.1161L7.23223 9Z" fill="currentColor"/>
    </symbol>

    <symbol id="arrow-up" width="100%" height="100%" viewBox="0 0 20 20">
      <path d="M14.1667 5.83325L5.83337 14.1666" fill="var(--color-none)" stroke="currentColor" stroke-width="2" stroke-linecap="round" stroke-linejoin="round"/>
      <path d="M6.66663 5.83325H14.1666V13.3333" fill="var(--color-none)" stroke="currentColor" stroke-width="2" stroke-linecap="round" stroke-linejoin="round"/>
    </symbol>

    <symbol id="tel" width="100%" height="100%" viewBox="0 0 24 23">
      <path d="M5 4.06006H9L11 8.69916L8.5 10.0909C9.57096 12.1057 11.3285 13.7363 13.5 14.73L15 12.4104L20 14.2661V17.9774C20 18.4695 19.7893 18.9415 19.4142 19.2895C19.0391 19.6375 18.5304 19.833 18 19.833C14.0993 19.6131 10.4202 18.0762 7.65683 15.5123C4.8935 12.9484 3.23705 9.53488 3 5.9157C3 5.42355 3.21071 4.95156 3.58579 4.60356C3.96086 4.25556 4.46957 4.06006 5 4.06006" stroke="currentColor" fill="var(--color-none)" stroke-width="2" stroke-linecap="round" stroke-linejoin="round"/>
      <path d="M15 6.84351C15.5304 6.84351 16.0391 7.03901 16.4142 7.38701C16.7893 7.73501 17 8.207 17 8.69914" fill="var(--color-none)" stroke="currentColor" stroke-width="2" stroke-linecap="round" stroke-linejoin="round"/>
      <path d="M15 3.13232C16.5913 3.13232 18.1174 3.71884 19.2426 4.76284C20.3679 5.80684 21 7.2228 21 8.69924" fill="var(--color-none)" stroke="currentColor" stroke-width="2" stroke-linecap="round" stroke-linejoin="round"/>
    </symbol>

    <symbol id="inst" width="100%" height="100%" viewBox="0 0 32 32">
      <path d="M17.371 2.66814C18.344 2.66441 19.317 2.67419 20.2897 2.69748L20.5484 2.70681C20.847 2.71748 21.1417 2.73081 21.4977 2.74681C22.9164 2.81348 23.8844 3.03748 24.7337 3.36681C25.6137 3.70548 26.355 4.16414 27.0964 4.90548C27.7742 5.57162 28.2988 6.37741 28.6337 7.26681C28.963 8.11614 29.187 9.08548 29.2537 10.5041C29.2697 10.8588 29.283 11.1548 29.2937 11.4535L29.3017 11.7121C29.3254 12.6844 29.3356 13.6569 29.3324 14.6295L29.3337 15.6241V17.3708C29.337 18.3438 29.3268 19.3168 29.303 20.2895L29.295 20.5481C29.2844 20.8468 29.271 21.1415 29.255 21.4975C29.1884 22.9161 28.9617 23.8841 28.6337 24.7335C28.2999 25.6238 27.7752 26.4303 27.0964 27.0961C26.4296 27.7739 25.6234 28.2985 24.7337 28.6335C23.8844 28.9628 22.9164 29.1868 21.4977 29.2535C21.1417 29.2695 20.847 29.2828 20.5484 29.2935L20.2897 29.3015C19.317 29.3252 18.344 29.3354 17.371 29.3321L16.3764 29.3335H14.631C13.658 29.3368 12.6851 29.3265 11.7124 29.3028L11.4537 29.2948C11.1372 29.2833 10.8207 29.27 10.5044 29.2548C9.0857 29.1881 8.1177 28.9615 7.26703 28.6335C6.37727 28.2993 5.57135 27.7746 4.9057 27.0961C4.22709 26.4299 3.70199 25.6236 3.36703 24.7335C3.0377 23.8841 2.8137 22.9161 2.74703 21.4975C2.73218 21.1811 2.71885 20.8647 2.70703 20.5481L2.70036 20.2895C2.67578 19.3168 2.66467 18.3438 2.66703 17.3708V14.6295C2.66331 13.6569 2.67309 12.6844 2.69636 11.7121L2.7057 11.4535C2.71636 11.1548 2.7297 10.8588 2.7457 10.5041C2.81236 9.08414 3.03636 8.11748 3.3657 7.26681C3.70086 6.37697 4.22698 5.5714 4.90703 4.90681C5.57222 4.22781 6.37764 3.70224 7.26703 3.36681C8.1177 3.03748 9.08436 2.81348 10.5044 2.74681L11.4537 2.70681L11.7124 2.70014C12.6846 2.67558 13.6571 2.66446 14.6297 2.66681L17.371 2.66814ZM16.0004 9.33481C15.117 9.32232 14.24 9.48551 13.4203 9.8149C12.6006 10.1443 11.8546 10.6333 11.2255 11.2536C10.5964 11.8738 10.0969 12.6129 9.75595 13.4278C9.41499 14.2428 9.23942 15.1174 9.23942 16.0008C9.23942 16.8842 9.41499 17.7588 9.75595 18.5738C10.0969 19.3888 10.5964 20.1278 11.2255 20.7481C11.8546 21.3683 12.6006 21.8573 13.4203 22.1867C14.24 22.5161 15.117 22.6793 16.0004 22.6668C17.7685 22.6668 19.4642 21.9644 20.7144 20.7142C21.9647 19.4639 22.667 17.7683 22.667 16.0001C22.667 14.232 21.9647 12.5363 20.7144 11.2861C19.4642 10.0359 17.7685 9.33481 16.0004 9.33481ZM16.0004 12.0015C16.5317 11.9917 17.0597 12.0879 17.5534 12.2844C18.0472 12.481 18.4968 12.7739 18.8761 13.1462C19.2553 13.5185 19.5566 13.9626 19.7623 14.4526C19.968 14.9426 20.074 15.4687 20.0741 16.0001C20.0741 16.5316 19.9683 17.0577 19.7628 17.5478C19.5573 18.0378 19.2562 18.4821 18.877 18.8545C18.4979 19.2269 18.0483 19.52 17.5547 19.7167C17.061 19.9134 16.533 20.0098 16.0017 20.0001C14.9408 20.0001 13.9234 19.5787 13.1733 18.8286C12.4231 18.0784 12.0017 17.061 12.0017 16.0001C12.0017 14.9393 12.4231 13.9219 13.1733 13.1717C13.9234 12.4216 14.9408 12.0001 16.0017 12.0001L16.0004 12.0015ZM23.0004 7.33481C22.5702 7.35203 22.1634 7.53501 21.8652 7.84544C21.5669 8.15587 21.4003 8.56966 21.4003 9.00014C21.4003 9.43063 21.5669 9.84442 21.8652 10.1548C22.1634 10.4653 22.5702 10.6483 23.0004 10.6655C23.4424 10.6655 23.8663 10.4899 24.1789 10.1773C24.4914 9.86476 24.667 9.44084 24.667 8.99881C24.667 8.55678 24.4914 8.13286 24.1789 7.8203C23.8663 7.50774 23.4424 7.33214 23.0004 7.33214V7.33481Z" fill="currentColor"/>
    </symbol>

    <symbol id="fb" width="100%" height="100%" viewBox="0 0 34 34">
      <path d="M31.1666 17.0002C31.1666 9.18016 24.8199 2.8335 16.9999 2.8335C9.17992 2.8335 2.83325 9.18016 2.83325 17.0002C2.83325 23.8568 7.70659 29.566 14.1666 30.8835V21.2502H11.3333V17.0002H14.1666V13.4585C14.1666 10.7243 16.3908 8.50016 19.1249 8.50016H22.6666V12.7502H19.8333C19.0541 12.7502 18.4166 13.3877 18.4166 14.1668V17.0002H22.6666V21.2502H18.4166V31.096C25.5708 30.3877 31.1666 24.3527 31.1666 17.0002Z" fill="currentColor"/>
    </symbol>

    <symbol id="in" width="100%" height="100%" viewBox="0 0 34 34">
      <path d="M26.9167 4.25C27.6681 4.25 28.3888 4.54851 28.9201 5.07986C29.4515 5.61122 29.75 6.33189 29.75 7.08333V26.9167C29.75 27.6681 29.4515 28.3888 28.9201 28.9201C28.3888 29.4515 27.6681 29.75 26.9167 29.75H7.08333C6.33189 29.75 5.61122 29.4515 5.07986 28.9201C4.54851 28.3888 4.25 27.6681 4.25 26.9167V7.08333C4.25 6.33189 4.54851 5.61122 5.07986 5.07986C5.61122 4.54851 6.33189 4.25 7.08333 4.25H26.9167ZM26.2083 26.2083V18.7C26.2083 17.4751 25.7218 16.3005 24.8557 15.4343C23.9895 14.5682 22.8149 14.0817 21.59 14.0817C20.3858 14.0817 18.9833 14.8183 18.3033 15.9233V14.3508H14.3508V26.2083H18.3033V19.2242C18.3033 18.1333 19.1817 17.2408 20.2725 17.2408C20.7985 17.2408 21.303 17.4498 21.6749 17.8217C22.0469 18.1937 22.2558 18.6982 22.2558 19.2242V26.2083H26.2083ZM9.74667 12.1267C10.3779 12.1267 10.9832 11.8759 11.4296 11.4296C11.8759 10.9832 12.1267 10.3779 12.1267 9.74667C12.1267 8.42917 11.0642 7.3525 9.74667 7.3525C9.11169 7.3525 8.50273 7.60474 8.05374 8.05374C7.60474 8.50273 7.3525 9.11169 7.3525 9.74667C7.3525 11.0642 8.42917 12.1267 9.74667 12.1267ZM11.7158 26.2083V14.3508H7.79167V26.2083H11.7158Z" fill="currentColor"/>
    </symbol>

  </defs>
</svg>